<svg xmlns="http://www.w3.org/2000/svg" viewBox="0 11 49 49">
  <path fill="#000" d="M19.4,11.5c0.6-0.1,1.1-0.2,1.6-0.3l2.5,14.6c-0.6,0.1-1.1,0.2-1.6,0.3L19.4,11.5z M18.7,27.7c0.6-0.4,1.2-0.7,1.7-1
	l-7.3-12.9c-0.6,0.3-1.2,0.7-1.7,1L18.7,27.7z M14.6,35.7c0-0.6,0-1.1,0.1-1.6H0.1C0,34.6,0,35.1,0,35.6s0,1,0,1.4h14.6
	C14.6,36.7,14.6,36.2,14.6,35.7 M34.4,35.7c0,5.5-4.4,10-10,10c-4.9,0-9-3.6-9.8-8.2L1,42.5c0.3,1.1,0.7,2.1,1.1,3.1l13.7-5L4.5,50
	c0.7,1,1.4,1.9,2.3,2.8L17.3,44l-6.8,11.9c1.1,0.8,2.2,1.4,3.4,2l6.4-11.2l-2.2,12.8c1.4,0.4,2.8,0.6,4.3,0.8l2.1-11.9l2.1,11.9
	c1.5-0.1,3-0.4,4.4-0.8l-1.9-11l5.5,9.7c1.5-0.7,3-1.5,4.3-2.5l-5.1-9l7.8,6.6c1.3-1.3,2.3-2.6,3.3-4.1l-7-5.9l8.6,3.2
	c0.8-1.6,1.4-3.4,1.8-5.2l-7.5-2.8h8c0.1-1,0.2-1.8,0.2-2.8c0-1.1-0.1-2.1-0.2-3.2H33.8C34.2,33.5,34.4,34.5,34.4,35.7 M14.8,33.5
	c0.2-0.9,0.5-1.7,1-2.5l-13.8-5c-0.4,0.8-0.7,1.6-0.9,2.5L14.8,33.5z M42.9,19.5l-11.2,9.5c0.3,0.3,0.6,0.6,0.8,1l11.2-9.5
	C43.5,20.1,43.2,19.8,42.9,19.5 M37.4,14.7c-0.4-0.3-0.8-0.5-1.2-0.7l-7.3,12.9c0.4,0.2,0.9,0.5,1.3,0.7L37.4,14.7z M17.8,28.5
	L6.5,18.9C6,19.5,5.4,20.1,5,20.6l11.2,9.5C16.7,29.5,17.2,28.9,17.8,28.5 M25.5,25.9c0.5,0.1,1,0.1,1.4,0.3l2.5-14.6
	c-0.5-0.1-1-0.2-1.4-0.3L25.5,25.9z"/>
</svg>
